<svg width="167" height="31" viewBox="0 0 167 31" fill="none" xmlns="http://www.w3.org/2000/svg">
<path d="M0.528409 30V0.90909H12.1761C14.3163 0.90909 16.1013 1.22633 17.5312 1.8608C18.9612 2.49527 20.036 3.37595 20.7557 4.50284C21.4754 5.62027 21.8352 6.90814 21.8352 8.36648C21.8352 9.50284 21.608 10.5019 21.1534 11.3636C20.6989 12.2159 20.0739 12.9167 19.2784 13.4659C18.4924 14.0057 17.5928 14.3892 16.5795 14.6165V14.9006C17.6875 14.9479 18.7244 15.2604 19.6903 15.8381C20.6657 16.4157 21.4564 17.2254 22.0625 18.267C22.6686 19.2992 22.9716 20.5303 22.9716 21.9602C22.9716 23.5038 22.5881 24.8816 21.821 26.0938C21.0634 27.2964 19.9413 28.2481 18.4545 28.9489C16.9678 29.6496 15.1354 30 12.9574 30H0.528409ZM6.67898 24.9716H11.6932C13.4072 24.9716 14.6572 24.6449 15.4432 23.9915C16.2292 23.3286 16.6222 22.4479 16.6222 21.3494C16.6222 20.5445 16.428 19.8343 16.0398 19.2188C15.6515 18.6032 15.0975 18.1203 14.3778 17.7699C13.6676 17.4195 12.8201 17.2443 11.8352 17.2443H6.67898V24.9716ZM6.67898 13.0824H11.2386C12.0814 13.0824 12.8295 12.9356 13.483 12.642C14.1458 12.339 14.6667 11.9129 15.0455 11.3636C15.4337 10.8144 15.6278 10.1562 15.6278 9.3892C15.6278 8.33807 15.2538 7.49053 14.5057 6.84659C13.767 6.20265 12.7159 5.88068 11.3523 5.88068H6.67898V13.0824ZM35.6033 30.4261C33.3589 30.4261 31.4271 29.9716 29.8078 29.0625C28.198 28.1439 26.9574 26.8466 26.0862 25.1705C25.215 23.4848 24.7794 21.4915 24.7794 19.1903C24.7794 16.946 25.215 14.9763 26.0862 13.2812C26.9574 11.5862 28.1838 10.2652 29.7652 9.31818C31.3561 8.37121 33.2216 7.89773 35.3618 7.89773C36.8012 7.89773 38.1411 8.12973 39.3817 8.59375C40.6317 9.0483 41.7207 9.73485 42.6487 10.6534C43.5862 11.572 44.3154 12.7273 44.8362 14.1193C45.3571 15.5019 45.6175 17.1212 45.6175 18.9773V20.6392H27.1942V16.8892H39.9214C39.9214 16.018 39.7321 15.2462 39.3533 14.5739C38.9745 13.9015 38.4489 13.3759 37.7766 12.9972C37.1137 12.6089 36.3419 12.4148 35.4612 12.4148C34.5427 12.4148 33.7283 12.6278 33.018 13.054C32.3173 13.4706 31.768 14.0341 31.3703 14.7443C30.9726 15.4451 30.769 16.2263 30.7595 17.0881V20.6534C30.7595 21.733 30.9584 22.6657 31.3561 23.4517C31.7633 24.2377 32.3362 24.8438 33.0749 25.2699C33.8135 25.696 34.6894 25.9091 35.7027 25.9091C36.375 25.9091 36.9906 25.8144 37.5493 25.625C38.108 25.4356 38.5862 25.1515 38.9839 24.7727C39.3817 24.3939 39.6847 23.9299 39.893 23.3807L45.4896 23.75C45.2055 25.0947 44.6232 26.2689 43.7425 27.2727C42.8713 28.267 41.7444 29.0436 40.3618 29.6023C38.9887 30.1515 37.4025 30.4261 35.6033 30.4261ZM54.4175 17.3864V30H48.3663V8.18182H54.1334V12.0312H54.3891C54.872 10.7623 55.6817 9.75852 56.818 9.01989C57.9544 8.27178 59.3322 7.89773 60.9516 7.89773C62.4667 7.89773 63.7877 8.22917 64.9146 8.89205C66.0415 9.55492 66.9175 10.5019 67.5425 11.733C68.1675 12.9545 68.48 14.4129 68.48 16.108V30H62.4288V17.1875C62.4383 15.8523 62.0974 14.8106 61.4061 14.0625C60.7148 13.3049 59.7631 12.9261 58.551 12.9261C57.7366 12.9261 57.0169 13.1013 56.3919 13.4517C55.7764 13.8021 55.2934 14.3134 54.943 14.9858C54.6021 15.6487 54.4269 16.4489 54.4175 17.3864ZM81.9071 30.4261C79.6723 30.4261 77.7499 29.9527 76.1401 29.0057C74.5397 28.0492 73.3086 26.7235 72.4469 25.0284C71.5946 23.3333 71.1685 21.3826 71.1685 19.1761C71.1685 16.9413 71.5993 14.9811 72.4611 13.2955C73.3323 11.6004 74.5681 10.2794 76.1685 9.33239C77.7688 8.37595 79.6723 7.89773 81.8787 7.89773C83.7821 7.89773 85.4488 8.24337 86.8787 8.93466C88.3086 9.62595 89.4402 10.5966 90.2736 11.8466C91.1069 13.0966 91.5662 14.5644 91.6514 16.25H85.9412C85.7802 15.161 85.3541 14.285 84.6628 13.6222C83.981 12.9498 83.0861 12.6136 81.9781 12.6136C81.0406 12.6136 80.2215 12.8693 79.5207 13.3807C78.8295 13.8826 78.2897 14.6165 77.9014 15.5824C77.5132 16.5483 77.319 17.7178 77.319 19.0909C77.319 20.483 77.5084 21.6667 77.8872 22.642C78.2755 23.6174 78.82 24.3608 79.5207 24.8722C80.2215 25.3835 81.0406 25.6392 81.9781 25.6392C82.6694 25.6392 83.2897 25.4972 83.8389 25.2131C84.3976 24.929 84.8569 24.517 85.2168 23.9773C85.5861 23.428 85.8276 22.7699 85.9412 22.0028H91.6514C91.5567 23.6695 91.1022 25.1373 90.2878 26.4062C89.4829 27.6657 88.3702 28.6506 86.9497 29.3608C85.5293 30.071 83.8484 30.4261 81.9071 30.4261ZM100.377 17.3864V30H94.3257V0.90909H100.206V12.0312H100.462C100.954 10.7434 101.75 9.73485 102.848 9.00568C103.947 8.26705 105.325 7.89773 106.982 7.89773C108.497 7.89773 109.818 8.22917 110.945 8.89205C112.081 9.54545 112.962 10.4877 113.587 11.7188C114.222 12.9403 114.534 14.4034 114.525 16.108V30H108.473V17.1875C108.483 15.8428 108.142 14.7964 107.451 14.0483C106.769 13.3002 105.812 12.9261 104.581 12.9261C103.758 12.9261 103.028 13.1013 102.394 13.4517C101.769 13.8021 101.276 14.3134 100.917 14.9858C100.566 15.6487 100.386 16.4489 100.377 17.3864ZM118.2 30V0.90909H137.803V5.98011H124.351V12.9119H136.794V17.983H124.351V24.929H137.859V30H118.2ZM151.805 30H141.492V0.90909H151.89C154.816 0.90909 157.335 1.49148 159.447 2.65625C161.559 3.81155 163.183 5.47348 164.319 7.64205C165.465 9.81061 166.038 12.4053 166.038 15.4261C166.038 18.4564 165.465 21.0606 164.319 23.2386C163.183 25.4167 161.549 27.0881 159.419 28.2528C157.297 29.4176 154.76 30 151.805 30ZM147.643 24.7301H151.549C153.367 24.7301 154.897 24.4081 156.137 23.7642C157.387 23.1108 158.325 22.1023 158.95 20.7386C159.584 19.3655 159.902 17.5947 159.902 15.4261C159.902 13.2765 159.584 11.5199 158.95 10.1562C158.325 8.79261 157.392 7.78883 156.152 7.14489C154.911 6.50095 153.382 6.17898 151.563 6.17898H147.643V24.7301Z" fill="black"/>
</svg>
